<svg width="30" height="30" viewBox="0 0 30 30" fill="none" xmlns="http://www.w3.org/2000/svg">
<path fill-rule="evenodd" clip-rule="evenodd" d="M18.6746 12.6375L13.1746 18.1625L11.1746 16.1625C10.8121 15.8 10.2121 15.8 9.84958 16.1625C9.48708 16.525 9.48708 17.125 9.84958 17.4875L12.4996 20.1375C12.8621 20.5 13.4621 20.5 13.8246 20.1375L19.9996 13.9625C20.3621 13.6 20.3621 13 19.9996 12.6375C19.6371 12.275 19.0371 12.275 18.6746 12.6375ZM26.4746 6.26255L22.6246 3.06255C22.0996 2.62505 21.3121 2.68755 20.8621 3.22505C20.4246 3.75005 20.4996 4.53755 21.0246 4.98755L24.8621 8.18755C25.3871 8.62505 26.1746 8.56255 26.6246 8.02505C27.0746 7.50005 26.9996 6.71255 26.4746 6.26255ZM5.12458 8.18755L8.96208 4.98755C9.49958 4.53755 9.57458 3.75005 9.12458 3.22505C8.68708 2.68755 7.89958 2.62505 7.37458 3.06255L3.52458 6.26255C2.99958 6.71255 2.92458 7.50005 3.37458 8.02505C3.81208 8.56255 4.59958 8.62505 5.12458 8.18755ZM14.9996 5.00002C8.78708 5.00002 3.74958 10.0375 3.74958 16.25C3.74958 22.4625 8.78708 27.5 14.9996 27.5C21.2121 27.5 26.2496 22.4625 26.2496 16.25C26.2496 10.0375 21.2121 5.00002 14.9996 5.00002ZM14.9996 25C10.1746 25 6.24958 21.075 6.24958 16.25C6.24958 11.425 10.1746 7.50002 14.9996 7.50002C19.8246 7.50002 23.7496 11.425 23.7496 16.25C23.7496 21.075 19.8246 25 14.9996 25Z" fill="#FF8364"/>
</svg>
