<svg width="30" height="30" viewBox="0 0 30 30" fill="none" xmlns="http://www.w3.org/2000/svg">
<g id=" 4. Icons / Action / autorenew">
<path id="&#240;&#159;&#148;&#185; Icon Color" fill-rule="evenodd" clip-rule="evenodd" d="M15 7.49987V9.73736C15 10.2999 15.675 10.5749 16.0625 10.1749L19.55 6.68737C19.8 6.43737 19.8 6.04987 19.55 5.79986L16.0625 2.31236C15.675 1.92486 15 2.19986 15 2.76236V4.99986C9.475 4.99986 5 9.47486 5 14.9999C5 16.2999 5.25 17.5499 5.7125 18.6874C6.05 19.5249 7.125 19.7499 7.7625 19.1124C8.1 18.7749 8.2375 18.2624 8.05 17.8124C7.6875 16.9499 7.5 15.9874 7.5 14.9999C7.5 10.8624 10.8625 7.49987 15 7.49987ZM22.2375 10.8874C21.9 11.2249 21.7625 11.7499 21.95 12.1874C22.3 13.0624 22.5 14.0124 22.5 14.9999C22.5 19.1374 19.1375 22.4999 15 22.4999V20.2624C15 19.6999 14.325 19.4249 13.9375 19.8249L10.45 23.3124C10.2 23.5624 10.2 23.9499 10.45 24.1999L13.9375 27.6874C14.325 28.0749 15 27.7999 15 27.2499V24.9999C20.525 24.9999 25 20.5249 25 14.9999C25 13.6999 24.75 12.4499 24.2875 11.3124C23.95 10.4749 22.875 10.2499 22.2375 10.8874Z" fill="#FF8364"/>
</g>
</svg>
