<svg width="16" height="22" viewBox="0 0 16 22" fill="none" xmlns="http://www.w3.org/2000/svg">
<path fill-rule="evenodd" clip-rule="evenodd" d="M8 4.99994V6.78994C8 7.23994 8.54 7.45994 8.85 7.13994L11.64 4.34994C11.84 4.14994 11.84 3.83994 11.64 3.63994L8.85 0.849941C8.54 0.539941 8 0.759941 8 1.20994V2.99994C3.58 2.99994 0 6.57994 0 10.9999C0 12.0399 0.2 13.0399 0.57 13.9499C0.84 14.6199 1.7 14.7999 2.21 14.2899C2.48 14.0199 2.59 13.6099 2.44 13.2499C2.15 12.5599 2 11.7899 2 10.9999C2 7.68994 4.69 4.99994 8 4.99994ZM13.79 7.70994C13.52 7.97994 13.41 8.39994 13.56 8.74994C13.84 9.44994 14 10.2099 14 10.9999C14 14.3099 11.31 16.9999 8 16.9999V15.2099C8 14.7599 7.46 14.5399 7.15 14.8599L4.36 17.6499C4.16 17.8499 4.16 18.1599 4.36 18.3599L7.15 21.1499C7.46 21.4599 8 21.2399 8 20.7999V18.9999C12.42 18.9999 16 15.4199 16 10.9999C16 9.95994 15.8 8.95994 15.43 8.04994C15.16 7.37994 14.3 7.19994 13.79 7.70994Z" fill="#969696"/>
</svg>
