<svg width="12" height="16" viewBox="0 0 12 16" fill="none" xmlns="http://www.w3.org/2000/svg">
<path fill-rule="evenodd" clip-rule="evenodd" d="M6 3.50002V4.84252C6 5.18002 6.405 5.34502 6.6375 5.10502L8.73 3.01252C8.88 2.86252 8.88 2.63002 8.73 2.48002L6.6375 0.387517C6.405 0.155017 6 0.320017 6 0.657517V2.00002C2.685 2.00002 0 4.68502 0 8.00002C0 8.78002 0.15 9.53002 0.4275 10.2125C0.63 10.715 1.275 10.85 1.6575 10.4675C1.86 10.265 1.9425 9.95752 1.83 9.68752C1.6125 9.17002 1.5 8.59252 1.5 8.00002C1.5 5.51752 3.5175 3.50002 6 3.50002ZM10.3425 5.53252C10.14 5.73502 10.0575 6.05002 10.17 6.31252C10.38 6.83752 10.5 7.40752 10.5 8.00002C10.5 10.4825 8.4825 12.5 6 12.5V11.1575C6 10.82 5.595 10.655 5.3625 10.895L3.27 12.9875C3.12 13.1375 3.12 13.37 3.27 13.52L5.3625 15.6125C5.595 15.845 6 15.68 6 15.35V14C9.315 14 12 11.315 12 8.00002C12 7.22002 11.85 6.47002 11.5725 5.78752C11.37 5.28502 10.725 5.15002 10.3425 5.53252Z" fill="#969696"/>
</svg>
