<svg width="30" height="30" viewBox="0 0 30 30" fill="none" xmlns="http://www.w3.org/2000/svg">
<path fill-rule="evenodd" clip-rule="evenodd" d="M5 8.75C5 8.0625 5.5625 7.5 6.25 7.5H26.25C26.9375 7.5 27.5 6.9375 27.5 6.25C27.5 5.5625 26.9375 5 26.25 5H5C3.625 5 2.5 6.125 2.5 7.5V21.25H1.875C0.8375 21.25 0 22.0875 0 23.125C0 24.1625 0.8375 25 1.875 25H15.625C16.6625 25 17.5 24.1625 17.5 23.125C17.5 22.0875 16.6625 21.25 15.625 21.25H5V8.75ZM28.75 10H21.25C20.5625 10 20 10.5625 20 11.25V23.75C20 24.4375 20.5625 25 21.25 25H28.75C29.4375 25 30 24.4375 30 23.75V11.25C30 10.5625 29.4375 10 28.75 10ZM27.5 21.25H22.5V12.5H27.5V21.25Z" fill="#FF8364"/>
</svg>
