<svg width="170" height="48" viewBox="0 0 170 48" fill="none" xmlns="http://www.w3.org/2000/svg">
<path fill-rule="evenodd" clip-rule="evenodd" d="M24 48C37.2548 48 48 37.2548 48 24C48 10.7452 37.2548 0 24 0C10.7452 0 0 10.7452 0 24C0 37.2548 10.7452 48 24 48Z" fill="#FF8364"/>
<path d="M53.5064 27.7273H56.892L61.4261 38.794H61.6051L66.1392 27.7273H69.5249V43H66.87V32.5075H66.7283L62.5075 42.9553H60.5238L56.3029 32.4851H56.1612V43H53.5064V27.7273ZM74.6145 43.2312C73.8886 43.2312 73.2349 43.1019 72.6532 42.8434C72.0765 42.5799 71.6191 42.1921 71.281 41.68C70.9479 41.168 70.7814 40.5366 70.7814 39.7859C70.7814 39.1396 70.9007 38.6051 71.1393 38.1825C71.378 37.7599 71.7036 37.4219 72.1163 37.1683C72.5289 36.9148 72.9937 36.7234 73.5108 36.5941C74.0328 36.4599 74.5722 36.3629 75.129 36.3033C75.8002 36.2337 76.3446 36.1715 76.7622 36.1168C77.1798 36.0572 77.4831 35.9677 77.672 35.8484C77.8659 35.7241 77.9629 35.5327 77.9629 35.2741V35.2294C77.9629 34.6676 77.7963 34.2326 77.4632 33.9244C77.1301 33.6161 76.6504 33.462 76.0239 33.462C75.3627 33.462 74.8382 33.6062 74.4504 33.8945C74.0676 34.1829 73.8091 34.5234 73.6749 34.9162L71.1543 34.5582C71.3531 33.8622 71.6812 33.2805 72.1386 32.8132C72.596 32.3409 73.1553 31.9879 73.8165 31.7543C74.4778 31.5156 75.2086 31.3963 76.009 31.3963C76.5609 31.3963 77.1102 31.4609 77.6571 31.5902C78.204 31.7195 78.7036 31.9332 79.156 32.2315C79.6085 32.5249 79.9714 32.9251 80.2448 33.4322C80.5232 33.9393 80.6624 34.5732 80.6624 35.3338V43H78.0673V41.4265H77.9778C77.8137 41.7447 77.5825 42.043 77.2842 42.3214C76.9909 42.5948 76.6205 42.8161 76.1731 42.9851C75.7306 43.1491 75.2111 43.2312 74.6145 43.2312ZM75.3155 41.2475C75.8574 41.2475 76.3272 41.1406 76.7249 40.9268C77.1227 40.7081 77.4284 40.4197 77.6422 40.0618C77.8609 39.7038 77.9703 39.3136 77.9703 38.891V37.5412C77.8858 37.6108 77.7416 37.6754 77.5378 37.7351C77.3389 37.7947 77.1152 37.8469 76.8666 37.8917C76.618 37.9364 76.3719 37.9762 76.1283 38.011C75.8847 38.0458 75.6734 38.0756 75.4945 38.1005C75.0918 38.1552 74.7313 38.2447 74.4131 38.369C74.095 38.4933 73.8439 38.6673 73.6599 38.891C73.476 39.1097 73.384 39.3931 73.384 39.7411C73.384 40.2383 73.5655 40.6136 73.9284 40.8672C74.2913 41.1207 74.7537 41.2475 75.3155 41.2475ZM82.2769 43V31.5455H84.8945V33.4545H85.0138C85.2226 32.7933 85.5805 32.2837 86.0876 31.9258C86.5997 31.5629 87.1839 31.3814 87.8401 31.3814C87.9893 31.3814 88.1558 31.3888 88.3398 31.4038C88.5287 31.4137 88.6853 31.4311 88.8096 31.456V33.9393C88.6952 33.8995 88.5138 33.8647 88.2652 33.8349C88.0216 33.8001 87.7854 33.7827 87.5567 33.7827C87.0646 33.7827 86.6221 33.8896 86.2293 34.1033C85.8415 34.3121 85.5358 34.603 85.3121 34.9759C85.0884 35.3487 84.9765 35.7788 84.9765 36.266V43H82.2769ZM91.964 39.4055L91.9566 36.1467H92.3891L96.5056 31.5455H99.6601L94.5965 37.1832H94.0372L91.964 39.4055ZM89.5031 43V27.7273H92.2027V43H89.5031ZM96.692 43L92.9633 37.7873L94.7829 35.8857L99.9211 43H96.692ZM104.958 43.2237C103.81 43.2237 102.818 42.9851 101.983 42.5078C101.153 42.0256 100.514 41.3445 100.066 40.4645C99.619 39.5795 99.3953 38.538 99.3953 37.3398C99.3953 36.1616 99.619 35.1275 100.066 34.2376C100.519 33.3427 101.15 32.6467 101.961 32.1495C102.771 31.6474 103.723 31.3963 104.817 31.3963C105.523 31.3963 106.189 31.5107 106.815 31.7393C107.447 31.9631 108.004 32.3111 108.486 32.7834C108.973 33.2557 109.356 33.8572 109.634 34.5881C109.913 35.3139 110.052 36.179 110.052 37.1832V38.011H100.663V36.1914H107.464C107.459 35.6744 107.347 35.2145 107.129 34.8118C106.91 34.4041 106.604 34.0835 106.211 33.8498C105.824 33.6161 105.371 33.4993 104.854 33.4993C104.302 33.4993 103.818 33.6335 103.4 33.902C102.982 34.1655 102.657 34.5135 102.423 34.946C102.194 35.3736 102.077 35.8434 102.072 36.3555V37.9439C102.072 38.6101 102.194 39.1818 102.438 39.6591C102.681 40.1314 103.022 40.4943 103.46 40.7479C103.897 40.9964 104.409 41.1207 104.996 41.1207C105.389 41.1207 105.744 41.0661 106.062 40.9567C106.38 40.8423 106.656 40.6758 106.89 40.457C107.124 40.2383 107.3 39.9673 107.419 39.6442L109.94 39.9276C109.781 40.5937 109.478 41.1754 109.03 41.6726C108.588 42.1648 108.021 42.5476 107.33 42.821C106.639 43.0895 105.848 43.2237 104.958 43.2237ZM116.956 31.5455V33.6335H110.371V31.5455H116.956ZM111.996 28.8011H114.696V39.5547C114.696 39.9176 114.751 40.196 114.86 40.3899C114.974 40.5788 115.123 40.7081 115.307 40.7777C115.491 40.8473 115.695 40.8821 115.919 40.8821C116.088 40.8821 116.242 40.8697 116.381 40.8448C116.525 40.82 116.635 40.7976 116.709 40.7777L117.164 42.8881C117.02 42.9379 116.814 42.9925 116.545 43.0522C116.282 43.1119 115.959 43.1467 115.576 43.1566C114.9 43.1765 114.291 43.0746 113.749 42.8509C113.207 42.6222 112.777 42.2692 112.459 41.7919C112.146 41.3146 111.991 40.718 111.996 40.0021V28.8011ZM118.113 47.2955V31.5455H120.768V33.4396H120.925C121.064 33.1612 121.26 32.8654 121.514 32.5522C121.767 32.234 122.11 31.9631 122.543 31.7393C122.975 31.5107 123.527 31.3963 124.198 31.3963C125.083 31.3963 125.881 31.6225 126.592 32.0749C127.308 32.5224 127.875 33.1861 128.293 34.0661C128.715 34.9411 128.926 36.0149 128.926 37.2876C128.926 38.5455 128.72 39.6143 128.307 40.4943C127.895 41.3743 127.333 42.0455 126.622 42.5078C125.911 42.9702 125.106 43.2013 124.206 43.2013C123.55 43.2013 123.005 43.092 122.573 42.8732C122.14 42.6545 121.792 42.391 121.529 42.0827C121.27 41.7695 121.069 41.4737 120.925 41.1953H120.813V47.2955H118.113ZM120.761 37.2727C120.761 38.0135 120.865 38.6623 121.074 39.2191C121.288 39.7759 121.593 40.2109 121.991 40.5241C122.394 40.8324 122.881 40.9865 123.453 40.9865C124.049 40.9865 124.549 40.8274 124.952 40.5092C125.354 40.1861 125.658 39.7461 125.861 39.1893C126.07 38.6275 126.175 37.9886 126.175 37.2727C126.175 36.5618 126.073 35.9304 125.869 35.3786C125.665 34.8267 125.362 34.3942 124.959 34.081C124.556 33.7678 124.054 33.6112 123.453 33.6112C122.876 33.6112 122.386 33.7628 121.984 34.0661C121.581 34.3693 121.275 34.7944 121.066 35.3413C120.863 35.8881 120.761 36.532 120.761 37.2727ZM132.838 27.7273V43H130.138V27.7273H132.838ZM137.81 43.2312C137.084 43.2312 136.43 43.1019 135.849 42.8434C135.272 42.5799 134.815 42.1921 134.477 41.68C134.143 41.168 133.977 40.5366 133.977 39.7859C133.977 39.1396 134.096 38.6051 134.335 38.1825C134.573 37.7599 134.899 37.4219 135.312 37.1683C135.724 36.9148 136.189 36.7234 136.706 36.5941C137.228 36.4599 137.768 36.3629 138.325 36.3033C138.996 36.2337 139.54 36.1715 139.958 36.1168C140.375 36.0572 140.679 35.9677 140.868 35.8484C141.061 35.7241 141.158 35.5327 141.158 35.2741V35.2294C141.158 34.6676 140.992 34.2326 140.659 33.9244C140.326 33.6161 139.846 33.462 139.219 33.462C138.558 33.462 138.034 33.6062 137.646 33.8945C137.263 34.1829 137.005 34.5234 136.87 34.9162L134.35 34.5582C134.549 33.8622 134.877 33.2805 135.334 32.8132C135.792 32.3409 136.351 31.9879 137.012 31.7543C137.673 31.5156 138.404 31.3963 139.205 31.3963C139.756 31.3963 140.306 31.4609 140.853 31.5902C141.399 31.7195 141.899 31.9332 142.352 32.2315C142.804 32.5249 143.167 32.9251 143.44 33.4322C143.719 33.9393 143.858 34.5732 143.858 35.3338V43H141.263V41.4265H141.173C141.009 41.7447 140.778 42.043 140.48 42.3214C140.186 42.5948 139.816 42.8161 139.369 42.9851C138.926 43.1491 138.407 43.2312 137.81 43.2312ZM138.511 41.2475C139.053 41.2475 139.523 41.1406 139.92 40.9268C140.318 40.7081 140.624 40.4197 140.838 40.0618C141.056 39.7038 141.166 39.3136 141.166 38.891V37.5412C141.081 37.6108 140.937 37.6754 140.733 37.7351C140.534 37.7947 140.311 37.8469 140.062 37.8917C139.814 37.9364 139.567 37.9762 139.324 38.011C139.08 38.0458 138.869 38.0756 138.69 38.1005C138.287 38.1552 137.927 38.2447 137.609 38.369C137.29 38.4933 137.039 38.6673 136.855 38.891C136.671 39.1097 136.58 39.3931 136.58 39.7411C136.58 40.2383 136.761 40.6136 137.124 40.8672C137.487 41.1207 137.949 41.2475 138.511 41.2475ZM150.469 43.2237C149.325 43.2237 148.344 42.9727 147.523 42.4705C146.708 41.9684 146.079 41.2749 145.636 40.3899C145.199 39.5 144.98 38.4759 144.98 37.3175C144.98 36.1541 145.204 35.1275 145.651 34.2376C146.099 33.3427 146.73 32.6467 147.546 32.1495C148.366 31.6474 149.335 31.3963 150.454 31.3963C151.384 31.3963 152.206 31.5678 152.922 31.9109C153.643 32.2489 154.217 32.7287 154.645 33.3501C155.073 33.9666 155.316 34.6875 155.376 35.5128H152.796C152.691 34.9609 152.443 34.5011 152.05 34.1332C151.662 33.7603 151.143 33.5739 150.491 33.5739C149.939 33.5739 149.455 33.723 149.037 34.0213C148.619 34.3146 148.294 34.7372 148.06 35.2891C147.831 35.8409 147.717 36.5021 147.717 37.2727C147.717 38.0533 147.831 38.7244 148.06 39.2862C148.289 39.843 148.609 40.2731 149.022 40.5763C149.44 40.8746 149.929 41.0238 150.491 41.0238C150.889 41.0238 151.244 40.9492 151.558 40.8001C151.876 40.646 152.142 40.4247 152.356 40.1364C152.569 39.848 152.716 39.4975 152.796 39.0849H155.376C155.311 39.8952 155.073 40.6136 154.66 41.2401C154.247 41.8615 153.685 42.3487 152.975 42.7017C152.264 43.0497 151.428 43.2237 150.469 43.2237ZM161.564 43.2237C160.415 43.2237 159.423 42.9851 158.588 42.5078C157.758 42.0256 157.119 41.3445 156.672 40.4645C156.224 39.5795 156 38.538 156 37.3398C156 36.1616 156.224 35.1275 156.672 34.2376C157.124 33.3427 157.755 32.6467 158.566 32.1495C159.376 31.6474 160.328 31.3963 161.422 31.3963C162.128 31.3963 162.794 31.5107 163.42 31.7393C164.052 31.9631 164.609 32.3111 165.091 32.7834C165.578 33.2557 165.961 33.8572 166.239 34.5881C166.518 35.3139 166.657 36.179 166.657 37.1832V38.011H157.268V36.1914H164.069C164.064 35.6744 163.952 35.2145 163.734 34.8118C163.515 34.4041 163.209 34.0835 162.816 33.8498C162.429 33.6161 161.976 33.4993 161.459 33.4993C160.907 33.4993 160.423 33.6335 160.005 33.902C159.587 34.1655 159.262 34.5135 159.028 34.946C158.799 35.3736 158.683 35.8434 158.678 36.3555V37.9439C158.678 38.6101 158.799 39.1818 159.043 39.6591C159.287 40.1314 159.627 40.4943 160.065 40.7479C160.502 40.9964 161.014 41.1207 161.601 41.1207C161.994 41.1207 162.349 41.0661 162.667 40.9567C162.985 40.8423 163.261 40.6758 163.495 40.457C163.729 40.2383 163.905 39.9673 164.025 39.6442L166.545 39.9276C166.386 40.5937 166.083 41.1754 165.635 41.6726C165.193 42.1648 164.626 42.5476 163.935 42.821C163.244 43.0895 162.453 43.2237 161.564 43.2237Z" fill="#1C1C1C"/>
<path d="M53.2912 21V7.90909H61.6776V9.89702H55.6626V13.451H61.1023V15.4389H55.6626V21H53.2912ZM65.3732 21.1982C64.751 21.1982 64.1907 21.0874 63.6921 20.8658C63.1978 20.6399 62.8057 20.3075 62.5159 19.8686C62.2304 19.4297 62.0877 18.8885 62.0877 18.245C62.0877 17.6911 62.1899 17.233 62.3945 16.8707C62.599 16.5085 62.8782 16.2188 63.2319 16.0014C63.5855 15.7841 63.984 15.62 64.4272 15.5092C64.8746 15.3942 65.337 15.3111 65.8142 15.2599C66.3895 15.2003 66.8561 15.147 67.2141 15.1001C67.5721 15.049 67.832 14.9723 67.9939 14.87C68.1601 14.7635 68.2432 14.5994 68.2432 14.3778V14.3395C68.2432 13.858 68.1005 13.4851 67.815 13.2209C67.5294 12.9567 67.1182 12.8246 66.5813 12.8246C66.0145 12.8246 65.565 12.9482 65.2326 13.1953C64.9044 13.4425 64.6828 13.7344 64.5678 14.071L62.4073 13.7642C62.5777 13.1676 62.859 12.669 63.251 12.2685C63.6431 11.8636 64.1225 11.5611 64.6892 11.3608C65.256 11.1562 65.8824 11.054 66.5685 11.054C67.0415 11.054 67.5124 11.1094 67.9811 11.2202C68.4499 11.331 68.8782 11.5142 69.2659 11.7699C69.6537 12.0213 69.9648 12.3643 70.1992 12.799C70.4378 13.2337 70.5571 13.777 70.5571 14.429V21H68.3327V19.6513H68.256C68.1154 19.924 67.9172 20.1797 67.6615 20.4183C67.4101 20.6527 67.0926 20.8423 66.7091 20.9872C66.3299 21.1278 65.8846 21.1982 65.3732 21.1982ZM65.974 19.4979C66.4385 19.4979 66.8412 19.4062 67.1821 19.223C67.523 19.0355 67.7851 18.7884 67.9684 18.4815C68.1559 18.1747 68.2496 17.8402 68.2496 17.478V16.321C68.1772 16.3807 68.0536 16.4361 67.8789 16.4872C67.7084 16.5384 67.5167 16.5831 67.3036 16.6214C67.0905 16.6598 66.8796 16.6939 66.6708 16.7237C66.462 16.7536 66.2809 16.7791 66.1275 16.8004C65.7823 16.8473 65.4733 16.924 65.2006 17.0305C64.9279 17.1371 64.7127 17.2862 64.555 17.478C64.3973 17.6655 64.3185 17.9084 64.3185 18.2067C64.3185 18.6328 64.474 18.9545 64.7851 19.1719C65.0962 19.3892 65.4925 19.4979 65.974 19.4979ZM79.5438 13.777L77.4344 14.0071C77.3748 13.794 77.2703 13.5938 77.1212 13.4062C76.9763 13.2188 76.7803 13.0675 76.5331 12.9524C76.286 12.8374 75.9834 12.7798 75.6255 12.7798C75.1439 12.7798 74.7391 12.8842 74.411 13.093C74.0871 13.3018 73.9273 13.5724 73.9316 13.9048C73.9273 14.1903 74.0317 14.4226 74.2448 14.6016C74.4621 14.7805 74.8201 14.9276 75.3186 15.0426L76.9934 15.4006C77.9223 15.6009 78.6127 15.9183 79.0644 16.353C79.5203 16.7876 79.7505 17.3565 79.7547 18.0597C79.7505 18.6776 79.5694 19.223 79.2114 19.696C78.8577 20.1648 78.3655 20.5312 77.7348 20.7955C77.1042 21.0597 76.3797 21.1918 75.5615 21.1918C74.3598 21.1918 73.3925 20.9403 72.6596 20.4375C71.9266 19.9304 71.4898 19.2251 71.3492 18.3217L73.6056 18.1044C73.7078 18.5476 73.9252 18.8821 74.2576 19.108C74.5899 19.3338 75.0225 19.4467 75.5551 19.4467C76.1049 19.4467 76.5459 19.3338 76.8783 19.108C77.2149 18.8821 77.3833 18.603 77.3833 18.2706C77.3833 17.9893 77.2746 17.7571 77.0573 17.5739C76.8442 17.3906 76.5118 17.25 76.0601 17.152L74.3854 16.8004C73.4436 16.6044 72.7469 16.2741 72.2952 15.8097C71.8435 15.3409 71.6198 14.7486 71.624 14.0327C71.6198 13.4276 71.7838 12.9034 72.1162 12.4602C72.4529 12.0128 72.9195 11.6676 73.5161 11.4247C74.1169 11.1776 74.8094 11.054 75.5935 11.054C76.7441 11.054 77.6496 11.299 78.3101 11.7891C78.9749 12.2791 79.3861 12.9418 79.5438 13.777ZM85.4654 11.1818V12.9716H79.8213V11.1818H85.4654ZM81.2147 8.82955H83.5287V18.0469C83.5287 18.358 83.5755 18.5966 83.6693 18.7628C83.7673 18.9247 83.8951 19.0355 84.0528 19.0952C84.2105 19.1548 84.3852 19.1847 84.577 19.1847C84.7218 19.1847 84.8539 19.174 84.9733 19.1527C85.0968 19.1314 85.1906 19.1122 85.2545 19.0952L85.6444 20.9041C85.5208 20.9467 85.344 20.9936 85.1139 21.0447C84.888 21.0959 84.611 21.1257 84.2829 21.1342C83.7034 21.1513 83.1814 21.0639 82.7169 20.8722C82.2524 20.6761 81.8838 20.3736 81.611 19.9645C81.3426 19.5554 81.2105 19.044 81.2147 18.4304V8.82955ZM93.5774 21.1918C92.6825 21.1918 91.9134 21.0298 91.2699 20.706C90.6264 20.3821 90.13 19.9453 89.7805 19.3956C89.4354 18.8416 89.2628 18.2173 89.2628 17.5227C89.2628 16.9986 89.3693 16.5341 89.5824 16.1293C89.7997 15.7244 90.098 15.3494 90.4773 15.0043C90.8608 14.6591 91.304 14.3161 91.8068 13.9751L94.1271 12.3963C94.468 12.1747 94.7259 11.9403 94.9006 11.6932C95.0795 11.446 95.169 11.1562 95.169 10.8239C95.169 10.5426 95.0497 10.2763 94.8111 10.0249C94.5767 9.77344 94.2528 9.64773 93.8395 9.64773C93.5625 9.64773 93.3175 9.71378 93.1044 9.84588C92.8956 9.97372 92.7315 10.142 92.6122 10.3509C92.4972 10.5597 92.4396 10.7812 92.4396 11.0156C92.4396 11.3011 92.5185 11.5909 92.6761 11.8849C92.8381 12.179 93.0469 12.4837 93.3026 12.799C93.5625 13.1143 93.8395 13.4489 94.1335 13.8026L100.276 21H97.7706L92.6697 15.1577C92.2905 14.7145 91.924 14.2777 91.5703 13.8473C91.2209 13.4169 90.9332 12.9695 90.7074 12.505C90.4858 12.0362 90.375 11.5291 90.375 10.9837C90.375 10.3658 90.5178 9.81392 90.8033 9.32812C91.0888 8.83807 91.4872 8.45241 91.9986 8.17116C92.5142 7.88991 93.1172 7.74929 93.8075 7.74929C94.4979 7.74929 95.0902 7.88565 95.5845 8.15838C96.0788 8.43111 96.4602 8.79332 96.7287 9.24503C96.9972 9.69673 97.1314 10.1889 97.1314 10.7216C97.1314 11.3395 96.978 11.8935 96.6712 12.3835C96.3643 12.8693 95.9382 13.3104 95.3928 13.7067L92.7464 15.6435C92.3118 15.9588 92.0007 16.2784 91.8132 16.6023C91.6257 16.9219 91.532 17.1946 91.532 17.4205C91.532 17.7656 91.6193 18.0788 91.794 18.3601C91.9688 18.6413 92.2138 18.8672 92.5291 19.0376C92.8487 19.2038 93.2216 19.2869 93.6477 19.2869C94.1165 19.2869 94.5788 19.1825 95.0348 18.9737C95.4908 18.7607 95.9062 18.4581 96.2812 18.0661C96.6562 17.674 96.9545 17.2053 97.1761 16.6598C97.3977 16.1101 97.5085 15.5007 97.5085 14.8317H99.4964C99.4964 15.6584 99.4048 16.3786 99.2216 16.9922C99.0384 17.6016 98.8018 18.1172 98.5121 18.5391C98.2223 18.9567 97.9155 19.2912 97.5916 19.5426C97.4893 19.6151 97.3913 19.6875 97.2976 19.7599C97.2038 19.8324 97.1058 19.9048 97.0036 19.9773C96.5433 20.3949 96.0043 20.7017 95.3864 20.8977C94.7727 21.0938 94.1697 21.1918 93.5774 21.1918ZM111.082 11.5078C111.023 10.9496 110.771 10.5149 110.328 10.2038C109.889 9.89276 109.318 9.73722 108.615 9.73722C108.121 9.73722 107.697 9.81179 107.343 9.96094C106.989 10.1101 106.719 10.3125 106.531 10.5682C106.344 10.8239 106.248 11.1158 106.244 11.4439C106.244 11.7166 106.306 11.9531 106.429 12.1534C106.557 12.3537 106.73 12.5241 106.947 12.6648C107.164 12.8011 107.405 12.9162 107.669 13.0099C107.933 13.1037 108.2 13.1825 108.468 13.2464L109.695 13.5533C110.19 13.6683 110.665 13.8239 111.121 14.0199C111.581 14.2159 111.992 14.4631 112.355 14.7614C112.721 15.0597 113.011 15.4197 113.224 15.8416C113.437 16.2635 113.543 16.7578 113.543 17.3246C113.543 18.0916 113.347 18.767 112.955 19.3509C112.563 19.9304 111.997 20.3842 111.255 20.7124C110.518 21.0362 109.625 21.1982 108.577 21.1982C107.558 21.1982 106.674 21.0405 105.924 20.7251C105.178 20.4098 104.595 19.9496 104.173 19.3445C103.755 18.7393 103.529 18.0021 103.495 17.1328H105.828C105.862 17.5888 106.003 17.968 106.25 18.2706C106.497 18.5732 106.819 18.799 107.215 18.9482C107.616 19.0973 108.063 19.1719 108.558 19.1719C109.073 19.1719 109.525 19.0952 109.913 18.9418C110.305 18.7841 110.612 18.5668 110.833 18.2898C111.055 18.0085 111.168 17.6804 111.172 17.3054C111.168 16.9645 111.068 16.6832 110.872 16.4616C110.676 16.2358 110.401 16.0483 110.047 15.8991C109.698 15.7457 109.288 15.6094 108.82 15.4901L107.33 15.1065C106.252 14.8295 105.4 14.4098 104.774 13.8473C104.151 13.2805 103.84 12.5284 103.84 11.5909C103.84 10.8196 104.049 10.1442 104.467 9.56463C104.889 8.98509 105.462 8.53551 106.186 8.21591C106.911 7.89204 107.731 7.73011 108.647 7.73011C109.576 7.73011 110.39 7.89204 111.089 8.21591C111.792 8.53551 112.344 8.98082 112.744 9.55185C113.145 10.1186 113.352 10.7706 113.364 11.5078H111.082ZM114.455 21V11.1818H116.769V21H114.455ZM115.619 9.78835C115.252 9.78835 114.937 9.6669 114.673 9.42401C114.408 9.17685 114.276 8.88068 114.276 8.53551C114.276 8.18608 114.408 7.88991 114.673 7.64702C114.937 7.39986 115.252 7.27628 115.619 7.27628C115.989 7.27628 116.305 7.39986 116.565 7.64702C116.829 7.88991 116.961 8.18608 116.961 8.53551C116.961 8.88068 116.829 9.17685 116.565 9.42401C116.305 9.6669 115.989 9.78835 115.619 9.78835ZM118.049 21V11.1818H120.26V12.8501H120.375C120.58 12.2876 120.919 11.8487 121.392 11.5334C121.865 11.2138 122.429 11.054 123.086 11.054C123.75 11.054 124.311 11.2159 124.767 11.5398C125.227 11.8594 125.551 12.2962 125.738 12.8501H125.841C126.058 12.3047 126.424 11.87 126.94 11.5462C127.46 11.218 128.076 11.054 128.787 11.054C129.691 11.054 130.428 11.3395 130.999 11.9105C131.57 12.4815 131.856 13.3146 131.856 14.4098V21H129.535V14.7678C129.535 14.1584 129.373 13.7131 129.049 13.4318C128.726 13.1463 128.329 13.0036 127.86 13.0036C127.302 13.0036 126.865 13.1783 126.55 13.5277C126.239 13.8729 126.083 14.3224 126.083 14.8764V21H123.814V14.6719C123.814 14.1648 123.661 13.7599 123.354 13.4574C123.052 13.1548 122.655 13.0036 122.165 13.0036C121.833 13.0036 121.53 13.0888 121.257 13.2592C120.985 13.4254 120.767 13.6619 120.606 13.9688C120.444 14.2713 120.363 14.625 120.363 15.0298V21H118.049ZM133.103 24.6818V11.1818H135.379V12.8054H135.513C135.632 12.5668 135.8 12.3132 136.018 12.0447C136.235 11.772 136.529 11.5398 136.9 11.348C137.271 11.152 137.744 11.054 138.319 11.054C139.077 11.054 139.761 11.2479 140.371 11.6357C140.984 12.0192 141.47 12.5881 141.828 13.3423C142.19 14.0923 142.371 15.0128 142.371 16.1037C142.371 17.1818 142.195 18.098 141.841 18.8523C141.487 19.6065 141.006 20.1818 140.396 20.5781C139.787 20.9744 139.097 21.1726 138.325 21.1726C137.763 21.1726 137.296 21.0788 136.925 20.8913C136.555 20.7038 136.256 20.478 136.031 20.2138C135.809 19.9453 135.636 19.6918 135.513 19.4531H135.417V24.6818H133.103ZM135.372 16.0909C135.372 16.7259 135.462 17.282 135.641 17.7592C135.824 18.2365 136.086 18.6094 136.427 18.8778C136.772 19.142 137.19 19.2741 137.68 19.2741C138.191 19.2741 138.619 19.1378 138.964 18.8651C139.31 18.5881 139.57 18.2109 139.744 17.7337C139.923 17.2521 140.013 16.7045 140.013 16.0909C140.013 15.4815 139.925 14.9403 139.751 14.4673C139.576 13.9943 139.316 13.6236 138.971 13.3551C138.626 13.0866 138.195 12.9524 137.68 12.9524C137.185 12.9524 136.766 13.0824 136.42 13.3423C136.075 13.6023 135.813 13.9666 135.634 14.4354C135.46 14.9041 135.372 15.456 135.372 16.0909ZM145.567 7.90909V21H143.253V7.90909H145.567ZM151.193 21.1918C150.209 21.1918 149.358 20.9872 148.643 20.5781C147.931 20.1648 147.383 19.581 147 18.8267C146.616 18.0682 146.424 17.1754 146.424 16.1484C146.424 15.1385 146.616 14.2521 147 13.4893C147.388 12.7223 147.929 12.1257 148.623 11.6996C149.318 11.2692 150.134 11.054 151.071 11.054C151.677 11.054 152.248 11.152 152.785 11.348C153.326 11.5398 153.803 11.8381 154.216 12.2429C154.634 12.6477 154.962 13.1634 155.201 13.7898C155.439 14.4119 155.559 15.1534 155.559 16.0142V16.7237H147.511V15.1641H153.341C153.336 14.7209 153.241 14.3267 153.053 13.9815C152.866 13.6321 152.603 13.3572 152.267 13.157C151.934 12.9567 151.547 12.8565 151.103 12.8565C150.63 12.8565 150.215 12.9716 149.857 13.2017C149.499 13.4276 149.22 13.7259 149.02 14.0966C148.824 14.4631 148.723 14.8658 148.719 15.3047V16.6662C148.719 17.2372 148.824 17.7273 149.032 18.1364C149.241 18.5412 149.533 18.8523 149.908 19.0696C150.283 19.2827 150.722 19.3892 151.225 19.3892C151.562 19.3892 151.866 19.3423 152.139 19.2486C152.412 19.1506 152.648 19.0078 152.848 18.8203C153.049 18.6328 153.2 18.4006 153.302 18.1236L155.463 18.3665C155.326 18.9375 155.067 19.4361 154.683 19.8622C154.304 20.2841 153.818 20.6122 153.226 20.8466C152.633 21.0767 151.956 21.1918 151.193 21.1918Z" fill="#969696"/>
<g opacity="0.3">
<path fill-rule="evenodd" clip-rule="evenodd" d="M35 27C35 28.1 34.1 29 33 29C32.82 29 32.65 28.98 32.49 28.93L28.93 32.48C28.98 32.64 29 32.82 29 33C29 34.1 28.1 35 27 35C25.9 35 25 34.1 25 33C25 32.82 25.02 32.64 25.07 32.48L22.52 29.93C22.36 29.98 22.18 30 22 30C21.82 30 21.64 29.98 21.48 29.93L16.93 34.49C16.98 34.65 17 34.82 17 35C17 36.1 16.1 37 15 37C13.9 37 13 36.1 13 35C13 33.9 13.9 33 15 33C15.18 33 15.35 33.02 15.51 33.07L20.07 28.52C20.02 28.36 20 28.18 20 28C20 26.9 20.9 26 22 26C23.1 26 24 26.9 24 28C24 28.18 23.98 28.36 23.93 28.52L26.48 31.07C26.64 31.02 26.82 31 27 31C27.18 31 27.36 31.02 27.52 31.07L31.07 27.51C31.02 27.35 31 27.18 31 27C31 25.9 31.9 25 33 25C34.1 25 35 25.9 35 27Z" fill="white"/>
</g>
<g opacity="0.6">
<path fill-rule="evenodd" clip-rule="evenodd" d="M35 20C35 21.1 34.1 22 33 22C32.82 22 32.65 21.98 32.49 21.93L28.93 25.48C28.98 25.64 29 25.82 29 26C29 27.1 28.1 28 27 28C25.9 28 25 27.1 25 26C25 25.82 25.02 25.64 25.07 25.48L22.52 22.93C22.36 22.98 22.18 23 22 23C21.82 23 21.64 22.98 21.48 22.93L16.93 27.49C16.98 27.65 17 27.82 17 28C17 29.1 16.1 30 15 30C13.9 30 13 29.1 13 28C13 26.9 13.9 26 15 26C15.18 26 15.35 26.02 15.51 26.07L20.07 21.52C20.02 21.36 20 21.18 20 21C20 19.9 20.9 19 22 19C23.1 19 24 19.9 24 21C24 21.18 23.98 21.36 23.93 21.52L26.48 24.07C26.64 24.02 26.82 24 27 24C27.18 24 27.36 24.02 27.52 24.07L31.07 20.51C31.02 20.35 31 20.18 31 20C31 18.9 31.9 18 33 18C34.1 18 35 18.9 35 20Z" fill="white"/>
</g>
<path fill-rule="evenodd" clip-rule="evenodd" d="M35 13C35 14.1 34.1 15 33 15C32.82 15 32.65 14.98 32.49 14.93L28.93 18.48C28.98 18.64 29 18.82 29 19C29 20.1 28.1 21 27 21C25.9 21 25 20.1 25 19C25 18.82 25.02 18.64 25.07 18.48L22.52 15.93C22.36 15.98 22.18 16 22 16C21.82 16 21.64 15.98 21.48 15.93L16.93 20.49C16.98 20.65 17 20.82 17 21C17 22.1 16.1 23 15 23C13.9 23 13 22.1 13 21C13 19.9 13.9 19 15 19C15.18 19 15.35 19.02 15.51 19.07L20.07 14.52C20.02 14.36 20 14.18 20 14C20 12.9 20.9 12 22 12C23.1 12 24 12.9 24 14C24 14.18 23.98 14.36 23.93 14.52L26.48 17.07C26.64 17.02 26.82 17 27 17C27.18 17 27.36 17.02 27.52 17.07L31.07 13.51C31.02 13.35 31 13.18 31 13C31 11.9 31.9 11 33 11C34.1 11 35 11.9 35 13Z" fill="white"/>
</svg>
