<svg width="38" height="38" viewBox="0 0 38 38" fill="none" xmlns="http://www.w3.org/2000/svg">
<path fill-rule="evenodd" clip-rule="evenodd" d="M19 38C29.4934 38 38 29.4934 38 19C38 8.50659 29.4934 0 19 0C8.50659 0 0 8.50659 0 19C0 29.4934 8.50659 38 19 38Z" fill="#FF8364"/>
<g opacity="0.3">
<path fill-rule="evenodd" clip-rule="evenodd" d="M27.7084 21.375C27.7084 22.2459 26.9959 22.9584 26.1251 22.9584C25.9826 22.9584 25.848 22.9425 25.7213 22.9029L22.903 25.7134C22.9426 25.84 22.9584 25.9825 22.9584 26.125C22.9584 26.9959 22.2459 27.7084 21.3751 27.7084C20.5042 27.7084 19.7917 26.9959 19.7917 26.125C19.7917 25.9825 19.8076 25.84 19.8472 25.7134L17.8284 23.6946C17.7017 23.7342 17.5592 23.75 17.4167 23.75C17.2742 23.75 17.1317 23.7342 17.0051 23.6946L13.403 27.3046C13.4426 27.4313 13.4584 27.5659 13.4584 27.7084C13.4584 28.5792 12.7459 29.2917 11.8751 29.2917C11.0042 29.2917 10.2917 28.5792 10.2917 27.7084C10.2917 26.8375 11.0042 26.125 11.8751 26.125C12.0176 26.125 12.1522 26.1409 12.2788 26.1804L15.8888 22.5784C15.8492 22.4517 15.8334 22.3092 15.8334 22.1667C15.8334 21.2959 16.5459 20.5834 17.4167 20.5834C18.2876 20.5834 19.0001 21.2959 19.0001 22.1667C19.0001 22.3092 18.9842 22.4517 18.9447 22.5784L20.9634 24.5971C21.0901 24.5575 21.2326 24.5417 21.3751 24.5417C21.5176 24.5417 21.6601 24.5575 21.7867 24.5971L24.5972 21.7788C24.5576 21.6521 24.5417 21.5175 24.5417 21.375C24.5417 20.5042 25.2542 19.7917 26.1251 19.7917C26.9959 19.7917 27.7084 20.5042 27.7084 21.375Z" fill="white"/>
</g>
<g opacity="0.6">
<path fill-rule="evenodd" clip-rule="evenodd" d="M27.7084 15.8333C27.7084 16.7042 26.9959 17.4167 26.1251 17.4167C25.9826 17.4167 25.848 17.4008 25.7213 17.3613L22.903 20.1717C22.9426 20.2983 22.9584 20.4408 22.9584 20.5833C22.9584 21.4542 22.2459 22.1667 21.3751 22.1667C20.5042 22.1667 19.7917 21.4542 19.7917 20.5833C19.7917 20.4408 19.8076 20.2983 19.8472 20.1717L17.8284 18.1529C17.7017 18.1925 17.5592 18.2083 17.4167 18.2083C17.2742 18.2083 17.1317 18.1925 17.0051 18.1529L13.403 21.7629C13.4426 21.8896 13.4584 22.0242 13.4584 22.1667C13.4584 23.0375 12.7459 23.75 11.8751 23.75C11.0042 23.75 10.2917 23.0375 10.2917 22.1667C10.2917 21.2958 11.0042 20.5833 11.8751 20.5833C12.0176 20.5833 12.1522 20.5992 12.2788 20.6387L15.8888 17.0367C15.8492 16.91 15.8334 16.7675 15.8334 16.625C15.8334 15.7542 16.5459 15.0417 17.4167 15.0417C18.2876 15.0417 19.0001 15.7542 19.0001 16.625C19.0001 16.7675 18.9842 16.91 18.9447 17.0367L20.9634 19.0554C21.0901 19.0158 21.2326 19 21.3751 19C21.5176 19 21.6601 19.0158 21.7867 19.0554L24.5972 16.2371C24.5576 16.1104 24.5417 15.9758 24.5417 15.8333C24.5417 14.9625 25.2542 14.25 26.1251 14.25C26.9959 14.25 27.7084 14.9625 27.7084 15.8333Z" fill="white"/>
</g>
<path fill-rule="evenodd" clip-rule="evenodd" d="M27.7084 10.2916C27.7084 11.1625 26.9959 11.875 26.1251 11.875C25.9826 11.875 25.848 11.8591 25.7213 11.8196L22.903 14.63C22.9426 14.7566 22.9584 14.8991 22.9584 15.0416C22.9584 15.9125 22.2459 16.625 21.3751 16.625C20.5042 16.625 19.7917 15.9125 19.7917 15.0416C19.7917 14.8991 19.8076 14.7566 19.8472 14.63L17.8284 12.6112C17.7017 12.6508 17.5592 12.6666 17.4167 12.6666C17.2742 12.6666 17.1317 12.6508 17.0051 12.6112L13.403 16.2212C13.4426 16.3479 13.4584 16.4825 13.4584 16.625C13.4584 17.4958 12.7459 18.2083 11.8751 18.2083C11.0042 18.2083 10.2917 17.4958 10.2917 16.625C10.2917 15.7541 11.0042 15.0416 11.8751 15.0416C12.0176 15.0416 12.1522 15.0575 12.2788 15.0971L15.8888 11.495C15.8492 11.3683 15.8334 11.2258 15.8334 11.0833C15.8334 10.2125 16.5459 9.49998 17.4167 9.49998C18.2876 9.49998 19.0001 10.2125 19.0001 11.0833C19.0001 11.2258 18.9842 11.3683 18.9447 11.495L20.9634 13.5137C21.0901 13.4741 21.2326 13.4583 21.3751 13.4583C21.5176 13.4583 21.6601 13.4741 21.7867 13.5137L24.5972 10.6954C24.5576 10.5687 24.5417 10.4341 24.5417 10.2916C24.5417 9.42081 25.2542 8.70831 26.1251 8.70831C26.9959 8.70831 27.7084 9.42081 27.7084 10.2916Z" fill="white"/>
</svg>
