<svg width="18" height="18" viewBox="0 0 18 18" fill="none" xmlns="http://www.w3.org/2000/svg">
<path fill-rule="evenodd" clip-rule="evenodd" d="M6.1275 12.75C6.51 12.75 6.8625 12.5325 7.0275 12.195L8.0925 10.065C8.1975 9.855 8.25 9.63 8.25 9.3975V6C8.25 5.5875 7.9125 5.25 7.5 5.25H4.5C4.0875 5.25 3.75 5.5875 3.75 6V9C3.75 9.4125 4.0875 9.75 4.5 9.75H6L5.2275 11.295C4.89 11.9625 5.3775 12.75 6.1275 12.75ZM12.1275 12.75C12.51 12.75 12.8625 12.5325 13.0275 12.195L14.0925 10.065C14.1975 9.855 14.25 9.63 14.25 9.3975V6C14.25 5.5875 13.9125 5.25 13.5 5.25H10.5C10.0875 5.25 9.75 5.5875 9.75 6V9C9.75 9.4125 10.0875 9.75 10.5 9.75H12L11.2275 11.295C10.89 11.9625 11.3775 12.75 12.1275 12.75Z" fill="white"/>
</svg>
