<svg width="89" height="89" viewBox="0 0 89 89" fill="none" xmlns="http://www.w3.org/2000/svg">
<path fill-rule="evenodd" clip-rule="evenodd" d="M44.5 0.75C20.35 0.75 0.75 20.35 0.75 44.5C0.75 68.65 20.35 88.25 44.5 88.25C68.65 88.25 88.25 68.65 88.25 44.5C88.25 20.35 68.65 0.75 44.5 0.75ZM32.6437 63.2688L16.9375 47.5625C15.2312 45.8563 15.2312 43.1 16.9375 41.3938C18.6437 39.6875 21.4 39.6875 23.1062 41.3938L35.75 53.9938L65.85 23.8937C67.5562 22.1875 70.3125 22.1875 72.0187 23.8937C73.725 25.6 73.725 28.3562 72.0187 30.0625L38.8125 63.2688C37.15 64.975 34.35 64.975 32.6437 63.2688Z" fill="#FF8364"/>
</svg>
