<svg width="30" height="30" viewBox="0 0 30 30" fill="none" xmlns="http://www.w3.org/2000/svg">
<path fill-rule="evenodd" clip-rule="evenodd" d="M24.375 10H21.25V7.5C21.25 6.125 20.125 5 18.75 5H3.75C2.375 5 1.25 6.125 1.25 7.5V18.75C1.25 20.125 2.375 21.25 3.75 21.25C3.75 23.325 5.425 25 7.5 25C9.575 25 11.25 23.325 11.25 21.25H18.75C18.75 23.325 20.425 25 22.5 25C24.575 25 26.25 23.325 26.25 21.25H27.5C28.1875 21.25 28.75 20.6875 28.75 20V15.8375C28.75 15.3 28.575 14.775 28.25 14.3375L25.375 10.5C25.1375 10.1875 24.7625 10 24.375 10ZM7.5 22.5C6.8125 22.5 6.25 21.9375 6.25 21.25C6.25 20.5625 6.8125 20 7.5 20C8.1875 20 8.75 20.5625 8.75 21.25C8.75 21.9375 8.1875 22.5 7.5 22.5ZM24.375 11.875L26.825 15H21.25V11.875H24.375ZM22.5 22.5C21.8125 22.5 21.25 21.9375 21.25 21.25C21.25 20.5625 21.8125 20 22.5 20C23.1875 20 23.75 20.5625 23.75 21.25C23.75 21.9375 23.1875 22.5 22.5 22.5Z" fill="#FF8364"/>
</svg>
