<svg width="30" height="30" viewBox="0 0 30 30" fill="none" xmlns="http://www.w3.org/2000/svg">
<path fill-rule="evenodd" clip-rule="evenodd" d="M12.5 20V10C12.5 8.625 13.6125 7.5 15 7.5H26.25V6.25C26.25 4.875 25.125 3.75 23.75 3.75H6.25C4.8625 3.75 3.75 4.875 3.75 6.25V23.75C3.75 25.125 4.8625 26.25 6.25 26.25H23.75C25.125 26.25 26.25 25.125 26.25 23.75V22.5H15C13.6125 22.5 12.5 21.375 12.5 20ZM16.25 10C15.5625 10 15 10.5625 15 11.25V18.75C15 19.4375 15.5625 20 16.25 20H27.5V10H16.25ZM20 16.875C18.9625 16.875 18.125 16.0375 18.125 15C18.125 13.9625 18.9625 13.125 20 13.125C21.0375 13.125 21.875 13.9625 21.875 15C21.875 16.0375 21.0375 16.875 20 16.875Z" fill="#FF8364"/>
</svg>
